<svg width="13" height="16" viewBox="0 0 13 16" fill="none" xmlns="http://www.w3.org/2000/svg">
<path fill-rule="evenodd" clip-rule="evenodd" d="M13 7.34665C12.9976 5.85667 12.5 4.40801 11.5825 3.21982C10.6649 2.03164 9.37745 1.16859 7.91477 0.761248C6.45209 0.353906 4.8938 0.424437 3.47567 0.962167C2.05754 1.4999 0.856732 2.47557 0.0549111 3.74157L0.781695 4.45371C0.984582 4.10085 1.22414 3.76948 1.49656 3.46488L1.48822 3.45671L1.74319 3.20688C2.58101 2.38117 3.65013 1.81777 4.81506 1.58805C5.98 1.35834 7.18832 1.47267 8.28687 1.91654C9.38543 2.36042 10.3248 3.11386 10.9859 4.08139C11.647 5.04891 12.0001 6.18696 12.0004 7.35132V7.35135C12.0004 7.46808 12.0004 7.58482 11.9897 7.70155V7.75059V7.78678V7.85916C11.9897 7.88251 11.9897 7.90119 11.9837 7.9222L11.973 8.01677V8.01677C11.973 8.03545 11.973 8.05529 11.9658 8.07631C11.961 8.09047 11.9594 8.11048 11.9578 8.13096C11.9571 8.14085 11.9563 8.15085 11.9551 8.16036L11.948 8.20706C11.948 8.22574 11.9439 8.24611 11.9399 8.26661L11.9399 8.26662L11.9398 8.26671C11.9381 8.27564 11.9363 8.2846 11.9348 8.29345C11.9325 8.30769 11.9311 8.31581 11.9299 8.3223L11.9299 8.32231C11.9286 8.32911 11.9277 8.33411 11.9265 8.34248C11.9258 8.34739 11.9255 8.35199 11.9252 8.35642V8.35643C11.9246 8.36676 11.924 8.37623 11.9182 8.38684C11.9126 8.39703 11.9113 8.41143 11.9099 8.42615V8.42616C11.9093 8.43337 11.9086 8.44065 11.9074 8.44755C11.9057 8.45806 11.9036 8.46769 11.9015 8.47732C11.8994 8.48696 11.8973 8.49659 11.8955 8.5071L11.8812 8.57597C11.8467 8.73591 11.8038 8.89819 11.7621 9.05346L11.7552 9.07565C11.7507 9.09044 11.7462 9.10522 11.7406 9.12001C11.7354 9.13404 11.7325 9.14434 11.7296 9.15474L11.7295 9.15479C11.7278 9.16081 11.7261 9.16687 11.724 9.17371C11.6894 9.27645 11.6513 9.38034 11.612 9.48074L11.5941 9.52278L11.5595 9.57881C11.5512 9.59749 11.5417 9.61968 11.5333 9.64069L11.5095 9.69322V9.70139L11.4773 9.77377C11.469 9.79245 11.4607 9.80997 11.4511 9.82748C11.2986 10.1497 11.1163 10.4577 10.9066 10.7474L10.8733 10.793L10.8006 10.8887L10.7934 10.8981L10.7934 10.8981C10.7846 10.9098 10.7751 10.9223 10.7648 10.9342L10.6862 11.0335L10.6386 11.0895L10.5945 11.142L10.5456 11.1981L10.5268 11.2191C10.5144 11.2331 10.5019 11.2471 10.4884 11.2611L11.1938 11.9522C12.3611 10.6916 13.0054 9.04888 13 7.34665ZM11.5214 12.5208C11.7934 12.2159 12.033 11.8846 12.2363 11.532L12.9416 12.2581C12.4294 13.0673 11.7507 13.7631 10.9489 14.3011C10.147 14.8391 9.23963 15.2075 8.28445 15.3828C7.32928 15.5581 6.3473 15.5366 5.4011 15.3195C4.4549 15.1024 3.56524 14.6945 2.78882 14.1219C2.01239 13.5492 1.36623 12.8244 0.891523 11.9935C0.416814 11.1626 0.123966 10.2439 0.0316439 9.29603C-0.0606784 8.34812 0.04955 7.39176 0.355304 6.4879C0.661057 5.58404 1.15563 4.75251 1.8075 4.04631L2.51284 4.73744L2.45565 4.80048L2.45561 4.80053L2.4556 4.80053L2.4556 4.80053C2.43894 4.81803 2.42227 4.83552 2.4068 4.85535C2.3976 4.86713 2.38798 4.8781 2.37844 4.88897L2.37844 4.88898L2.37844 4.88898L2.37841 4.88901L2.37839 4.88903C2.37189 4.89645 2.36542 4.90382 2.35914 4.91139L2.34484 4.92886L2.34483 4.92887C2.33402 4.94215 2.32304 4.95565 2.31148 4.96859L2.23285 5.06665C2.21974 5.08183 2.20783 5.09818 2.1971 5.11335L2.12562 5.20792L2.09107 5.25345C1.88163 5.54339 1.69939 5.85129 1.54657 6.1734L1.52155 6.2271C1.50964 6.2516 1.49893 6.2761 1.48821 6.30061L1.48819 6.30065V6.30882C1.48565 6.31415 1.48256 6.31948 1.47949 6.32477C1.47247 6.33688 1.46555 6.34882 1.46555 6.36019L1.43815 6.42323C1.43219 6.43957 1.42505 6.45709 1.41909 6.4711C1.41735 6.47518 1.41521 6.47937 1.41304 6.48359C1.40779 6.49386 1.40241 6.50437 1.40241 6.51429C1.3619 6.61469 1.32377 6.7186 1.29041 6.82016C1.28608 6.83147 1.28307 6.84107 1.27977 6.85155L1.27977 6.85156L1.27977 6.85156C1.27762 6.85839 1.27536 6.86558 1.27254 6.87387C1.27044 6.88005 1.26792 6.88623 1.26542 6.89238L1.26542 6.89238C1.25941 6.90714 1.25348 6.92173 1.25348 6.93574C1.21058 7.09218 1.16769 7.25329 1.13433 7.41323C1.12837 7.43658 1.12242 7.46343 1.11884 7.48327C1.11718 7.4925 1.11526 7.50122 1.11332 7.51003C1.11109 7.52016 1.10884 7.5304 1.10693 7.54165C1.10574 7.54861 1.10508 7.55621 1.10443 7.56377C1.1031 7.57904 1.10178 7.59415 1.09621 7.60352C1.09204 7.61053 1.09204 7.61724 1.09204 7.62425C1.09204 7.63125 1.09204 7.63855 1.08787 7.64672C1.08285 7.65654 1.08257 7.66215 1.08212 7.67139C1.08181 7.67753 1.08143 7.68527 1.07952 7.69692C1.07804 7.70603 1.0762 7.71515 1.07438 7.72419L1.07438 7.7242C1.07036 7.74411 1.06642 7.76368 1.06642 7.78214L1.05927 7.83001C1.05806 7.83953 1.05643 7.84919 1.05481 7.85881C1.05166 7.87747 1.04855 7.89594 1.04855 7.91289C1.04378 7.93391 1.0414 7.95376 1.0414 7.97243L1.03068 8.067V8.13004L1.02353 8.20243C1.02412 8.21292 1.02412 8.22344 1.02353 8.23394V8.28298C1.0128 8.39972 1.0128 8.51646 1.0128 8.6332V8.63321C1.0116 9.79865 1.36392 10.9381 2.025 11.907C2.68609 12.8758 3.62611 13.6302 4.7257 14.0745C5.82528 14.5188 7.03481 14.6328 8.20066 14.4021C9.36652 14.1714 10.4361 13.6064 11.2736 12.7788L11.5285 12.5278L11.5214 12.5208ZM4.99255 13.4147C4.35222 13.1541 3.77099 12.7717 3.2825 12.2896L3.26582 12.3597C2.77497 11.8786 2.38581 11.3073 2.12063 10.6786C1.85545 10.0499 1.71947 9.37609 1.72046 8.6958C1.72146 8.01551 1.85942 7.3421 2.12644 6.71414C2.39346 6.08617 2.78429 5.51601 3.27655 5.03628C3.65855 4.6651 4.09558 4.35259 4.57284 4.10933L5.32107 4.84248C4.82263 5.05203 4.36877 5.35142 3.98308 5.72507C3.19664 6.48871 2.74274 7.52122 2.71668 8.6058C2.69062 9.69038 3.09442 10.7427 3.84331 11.5417C4.59219 12.3408 5.6279 12.8245 6.73299 12.8912C7.83807 12.958 8.92657 12.6026 9.76994 11.8997L10.4753 12.5908L10.4467 12.6154L10.3526 12.6936L10.3025 12.7344L10.2525 12.773L10.2406 12.7811L10.2108 12.8045L10.1619 12.8418L10.1167 12.8745L10.0904 12.8932L10.0535 12.9189H10.0464L9.99751 12.9527C9.93794 12.9936 9.88313 13.0286 9.82952 13.0625L9.71037 13.1349L9.63769 13.1769L9.60433 13.1956C9.49829 13.2539 9.38868 13.31 9.27788 13.3614L9.22426 13.387H9.21354L9.17779 13.4022L9.11107 13.4314L9.0372 13.4629L8.96214 13.4921L8.91687 13.5096C8.8978 13.5178 8.87755 13.5248 8.8561 13.5318L8.8144 13.5481H8.80487L8.77032 13.561L8.63807 13.6042L8.59517 13.617L8.5356 13.6357L8.49628 13.6474H8.48913L8.45816 13.6567L8.41765 13.6672L8.36642 13.6812L8.30208 13.6976H8.27825L8.18532 13.7186L8.04473 13.7478L7.99111 13.7571H7.98515L7.94345 13.7641H7.9375L7.88507 13.7723C7.82312 13.7828 7.75878 13.7921 7.69325 13.8003H7.64082H7.61461H7.5741H7.51334L7.44185 13.8073H7.42398H7.38824H7.31079H7.21428H7.14637H7.01293C6.3196 13.8086 5.63289 13.6752 4.99255 13.4147ZM8.42723 11.9464L7.679 11.2133C8.18765 10.9897 8.64728 10.6718 9.03249 10.277C9.81892 9.51332 10.2728 8.48082 10.2989 7.39624C10.3249 6.31166 9.92114 5.25937 9.17226 4.4603C8.42337 3.66124 7.38766 3.17755 6.28258 3.11081C5.17749 3.04406 4.08899 3.39944 3.24562 4.10233L2.54028 3.41003L2.56888 3.38552L2.663 3.3073L2.71781 3.2641L2.76785 3.22441L2.77976 3.21623L2.80955 3.19288L2.8584 3.15669L2.90367 3.12401L2.92869 3.10533L2.96682 3.07848L2.97635 3.07147L3.02163 3.04112C3.0812 3.00142 3.13601 2.96523 3.18962 2.93255L3.23847 2.90219L3.31473 2.85666L3.38383 2.81697L3.416 2.79829C3.52204 2.73991 3.63165 2.68388 3.74246 2.63251L3.79726 2.60683H3.80679L3.84254 2.59165L3.90926 2.56247L3.98313 2.53211L4.05819 2.50176L4.10346 2.48424L4.16542 2.46206L4.20593 2.44688H4.21665L4.25001 2.43521L4.38226 2.39085L4.42516 2.37801L4.48473 2.36049L4.52405 2.34882H4.53119L4.56217 2.33948L4.60268 2.32898L4.65391 2.31497L4.71825 2.29862H4.74208L4.83501 2.27644L4.9768 2.24725L5.02922 2.23791H5.03756L5.07688 2.23091H5.08284L5.13526 2.22157C5.19841 2.21106 5.26155 2.20289 5.32708 2.19472L5.37831 2.18771H5.38546H5.40572H5.44623L5.50699 2.18188H5.57848H5.59635H5.63209H5.70954H5.80605H5.87157L6.00383 2.18188C7.18616 2.18261 8.33402 2.5723 9.26337 3.28849C10.1927 4.00467 10.8498 5.00587 11.1291 6.13158C11.4085 7.2573 11.2941 8.44233 10.8042 9.49671C10.3142 10.5511 9.47719 11.4138 8.42723 11.9464Z" fill="#4F46E5"/>
</svg>
